<svg width="31" height="31" viewBox="0 0 31 31" fill="none" xmlns="http://www.w3.org/2000/svg">
<path d="M25.6649 3.5H24.1649V2C24.1649 1.1 23.5649 0.5 22.6649 0.5C21.7649 0.5 21.1649 1.1 21.1649 2V3.5H9.16492V2C9.16492 1.1 8.56492 0.5 7.66492 0.5C6.76492 0.5 6.16492 1.1 6.16492 2V3.5H4.66492C2.11492 3.5 0.164917 5.45 0.164917 8V9.5H30.1649V8C30.1649 5.45 28.2149 3.5 25.6649 3.5ZM0.164917 26C0.164917 28.55 2.11492 30.5 4.66492 30.5H25.6649C28.2149 30.5 30.1649 28.55 30.1649 26V12.5H0.164917V26ZM22.6649 15.5C23.5649 15.5 24.1649 16.1 24.1649 17C24.1649 17.9 23.5649 18.5 22.6649 18.5C21.7649 18.5 21.1649 17.9 21.1649 17C21.1649 16.1 21.7649 15.5 22.6649 15.5ZM22.6649 21.5C23.5649 21.5 24.1649 22.1 24.1649 23C24.1649 23.9 23.5649 24.5 22.6649 24.5C21.7649 24.5 21.1649 23.9 21.1649 23C21.1649 22.1 21.7649 21.5 22.6649 21.5ZM15.1649 15.5C16.0649 15.5 16.6649 16.1 16.6649 17C16.6649 17.9 16.0649 18.5 15.1649 18.5C14.2649 18.5 13.6649 17.9 13.6649 17C13.6649 16.1 14.2649 15.5 15.1649 15.5ZM15.1649 21.5C16.0649 21.5 16.6649 22.1 16.6649 23C16.6649 23.9 16.0649 24.5 15.1649 24.5C14.2649 24.5 13.6649 23.9 13.6649 23C13.6649 22.1 14.2649 21.5 15.1649 21.5ZM7.66492 15.5C8.56492 15.5 9.16492 16.1 9.16492 17C9.16492 17.9 8.56492 18.5 7.66492 18.5C6.76492 18.5 6.16492 17.9 6.16492 17C6.16492 16.1 6.76492 15.5 7.66492 15.5ZM7.66492 21.5C8.56492 21.5 9.16492 22.1 9.16492 23C9.16492 23.9 8.56492 24.5 7.66492 24.5C6.76492 24.5 6.16492 23.9 6.16492 23C6.16492 22.1 6.76492 21.5 7.66492 21.5Z" fill="#6B4B46"/>
</svg>
