<svg width="67" height="66" viewBox="0 0 67 66" fill="none" xmlns="http://www.w3.org/2000/svg">
<circle cx="33.5" cy="33" r="33" fill="#6B4B46"/>
<path d="M23.3396 14.6665L18.7513 15.8064L15.1666 24.1291L17.9233 25.9575L20.1971 21.4358L21.609 21.8394L20.3611 34.2019H32.6057L33.3675 26.9623L33.442 26.2952H33.8146L33.3675 21.8394L34.7835 21.4358L37.0524 25.9575L39.8098 24.1291L36.2243 15.8064L31.6368 14.6665C31.1814 14.9852 30.6266 15.178 30.0221 15.3213C29.2437 15.5033 28.366 15.5881 27.4882 15.5881C26.6105 15.5881 25.7327 15.5033 24.9543 15.3213C24.3499 15.178 23.7951 14.9861 23.3396 14.6665ZM34.7835 27.7777L34.6592 28.9308H49.465L49.3408 27.7777H34.7835ZM34.5019 30.4133L32.291 51.3332H37.4829L41.3334 33.4689H42.7908L46.6413 51.3332H51.8333L49.6224 30.4133H34.5019Z" fill="white"/>
</svg>
