<svg width="31" height="31" viewBox="0 0 31 31" fill="none" xmlns="http://www.w3.org/2000/svg">
<path d="M12.9149 1.18156L1.66492 8.89694C0.727417 9.54846 0.164917 10.56 0.164917 11.6402V27.0709C0.164917 28.9569 1.85242 30.5 3.91492 30.5H26.4149C28.4774 30.5 30.1649 28.9569 30.1649 27.0709V11.6402C30.1649 10.56 29.6024 9.54846 28.6649 8.89694L17.4149 1.18156C16.7646 0.73901 15.9756 0.5 15.1649 0.5C14.3543 0.5 13.5652 0.73901 12.9149 1.18156ZM16.1024 15.9265C16.1024 17.3496 14.8462 18.4983 13.2899 18.4983V24.4992C13.2899 24.9792 12.8774 25.3564 12.3524 25.3564C11.8274 25.3564 11.4149 24.9792 11.4149 24.4992V18.4983C9.85867 18.4983 8.60242 17.3496 8.60242 15.9265V11.6402C8.60242 11.1601 9.01492 10.7829 9.53992 10.7829C10.0649 10.7829 10.4774 11.1601 10.4774 11.6402V15.9265H11.4149V11.6402C11.4149 11.1601 11.8274 10.7829 12.3524 10.7829C12.8774 10.7829 13.2899 11.1601 13.2899 11.6402V15.9265H14.2274V11.6402C14.2274 11.1601 14.6399 10.7829 15.1649 10.7829C15.6899 10.7829 16.1024 11.1601 16.1024 11.6402V15.9265ZM19.8524 25.3564C19.3274 25.3564 18.9149 24.9792 18.9149 24.4992V19.3556H17.9774C17.4524 19.3556 17.0399 18.9784 17.0399 18.4983V14.212C17.0399 12.7032 18.1087 11.4173 19.5899 10.9715C20.1712 10.7829 20.7899 11.2116 20.7899 11.7945V24.4992C20.7899 24.9792 20.3774 25.3564 19.8524 25.3564Z" fill="#6B4B46"/>
</svg>
