<svg width="67" height="66" viewBox="0 0 67 66" fill="none" xmlns="http://www.w3.org/2000/svg">
<circle cx="33.5" cy="33" r="33" fill="#6B4B46"/>
<path d="M31.5007 18.3355C29.7533 20.0836 28.7426 22.4132 28.163 24.7498C27.5817 27.0968 27.4107 29.5469 27.4124 31.6477C27.4106 31.7965 27.3509 31.9386 27.2459 32.044C27.1409 32.1493 26.999 32.2095 26.8503 32.2118C23.7588 32.224 19.8399 32.596 16.6698 34.11C15.4793 34.6793 14.9818 35.8528 15.228 36.9653C15.4601 38.0061 16.3015 38.86 17.4397 39.1377C18.8274 39.4765 20.4369 39.9148 21.8369 40.4125C22.5369 40.6605 23.1636 40.9154 23.6733 41.1704C24.2005 41.4358 24.5234 41.6594 24.6823 41.82C24.8411 41.9772 25.0663 42.3002 25.3299 42.8276C25.5847 43.3376 25.8396 43.9627 26.0875 44.663C26.5832 46.0618 27.0197 47.6719 27.3583 49.0585C27.6359 50.1971 28.4895 51.0406 29.5316 51.2711C30.6436 51.5191 31.8166 51.0214 32.3857 49.8304C33.8992 46.6643 34.271 42.7508 34.2884 39.6616C34.2884 39.3577 34.545 39.101 34.8523 39.101C36.9505 39.101 39.4014 38.9299 41.7475 38.3483C44.0866 37.7668 46.4153 36.7557 48.1644 35.0059C50.1195 33.05 51.0761 30.4497 51.5108 27.9228C51.9472 25.3889 51.8756 22.8131 51.6766 20.7769C51.5359 19.2451 50.8635 17.8109 49.7762 16.7231C48.6889 15.6354 47.2552 14.9628 45.724 14.822C43.6886 14.6246 41.1156 14.553 38.5809 14.9879C36.055 15.4244 33.4558 16.3814 31.5007 18.3355ZM41.3512 19.902C41.8142 19.902 42.2582 20.086 42.5856 20.4135C42.9129 20.741 43.0969 21.1852 43.0969 21.6483C43.0969 22.1115 42.9129 22.5556 42.5856 22.8831C42.2582 23.2106 41.8142 23.3946 41.3512 23.3946C40.8883 23.3946 40.4443 23.2106 40.1169 22.8831C39.7895 22.5556 39.6056 22.1115 39.6056 21.6483C39.6056 21.1852 39.7895 20.741 40.1169 20.4135C40.4443 20.086 40.8883 19.902 41.3512 19.902Z" fill="white"/>
</svg>
