<svg width="67" height="66" viewBox="0 0 67 66" fill="none" xmlns="http://www.w3.org/2000/svg">
<circle cx="33.5" cy="33" r="33" fill="#6B4B46"/>
<path d="M33.5 34.5277C31.474 34.5277 29.5311 33.7229 28.0985 32.2903C26.6659 30.8577 25.8611 28.9147 25.8611 26.8888H28.9167C28.9167 28.1044 29.3996 29.2701 30.2591 30.1297C31.1186 30.9892 32.2844 31.4721 33.5 31.4721C34.7156 31.4721 35.8814 30.9892 36.7409 30.1297C37.6004 29.2701 38.0833 28.1044 38.0833 26.8888H41.1389C41.1389 28.9147 40.3341 30.8577 38.9015 32.2903C37.4689 33.7229 35.526 34.5277 33.5 34.5277ZM33.5 19.2499C34.7156 19.2499 35.8814 19.7328 36.7409 20.5923C37.6004 21.4519 38.0833 22.6177 38.0833 23.8332H28.9167C28.9167 22.6177 29.3996 21.4519 30.2591 20.5923C31.1186 19.7328 32.2844 19.2499 33.5 19.2499ZM44.1944 23.8332H41.1389C41.1389 22.8301 40.9413 21.8367 40.5574 20.9099C40.1735 19.9832 39.6108 19.1411 38.9015 18.4317C38.1922 17.7224 37.3501 17.1597 36.4233 16.7758C35.4965 16.3919 34.5032 16.1943 33.5 16.1943C31.474 16.1943 29.5311 16.9991 28.0985 18.4317C26.6659 19.8643 25.8611 21.8073 25.8611 23.8332H22.8056C21.1097 23.8332 19.75 25.1929 19.75 26.8888V45.2221C19.75 46.0325 20.0719 46.8097 20.645 47.3827C21.218 47.9557 21.9952 48.2777 22.8056 48.2777H44.1944C45.0048 48.2777 45.782 47.9557 46.355 47.3827C46.9281 46.8097 47.25 46.0325 47.25 45.2221V26.8888C47.25 26.0784 46.9281 25.3012 46.355 24.7282C45.782 24.1551 45.0048 23.8332 44.1944 23.8332Z" fill="white"/>
</svg>
