<svg width="21" height="25" viewBox="0 0 21 25" fill="none" xmlns="http://www.w3.org/2000/svg">
<path d="M19.1649 0.5H1.16492C0.899701 0.5 0.645347 0.605357 0.45781 0.792893C0.270274 0.98043 0.164917 1.23478 0.164917 1.5V23.5C0.164917 23.7652 0.270274 24.0196 0.45781 24.2071C0.645347 24.3946 0.899701 24.5 1.16492 24.5H19.1649C19.4301 24.5 19.6845 24.3946 19.872 24.2071C20.0596 24.0196 20.1649 23.7652 20.1649 23.5V1.5C20.1649 1.23478 20.0596 0.98043 19.872 0.792893C19.6845 0.605357 19.4301 0.5 19.1649 0.5ZM16.1649 16.5H4.16492V14.5H16.1649V16.5ZM16.1649 12.5H4.16492V10.5H16.1649V12.5ZM16.1649 8.5H4.16492V6.5H16.1649V8.5Z" fill="#6B4B46"/>
</svg>
